<svg xmlns="http://www.w3.org/2000/svg" viewBox="149 203 988 357"><defs><style>.cls-1{fill:#fff;}.cls-2{fill:#232221;}.cls-3{fill:#009639;}</style></defs><g><path class="cls-2" d="M567.73,295.24h0a11.09,11.09,0,0,1,11.09,11.09v92.81q0,26.76,10,40T622,452.41q23.38,0,33-13.38t9.64-39.89V306.33a11.09,11.09,0,0,1,11.09-11.09h0a11.09,11.09,0,0,1,11.09,11.09v92.81q0,19.29-4.46,32.9t-12.78,22.54a48.69,48.69,0,0,1-20.49,13,85.46,85.46,0,0,1-27.36,4.1q-31.1,0-48.09-17.35t-17-56.17V306.33A11.09,11.09,0,0,1,567.73,295.24Z"/><path class="cls-2" d="M730.45,342.72h0a10.37,10.37,0,0,1,10.37,10.37v8.68q9.16-12.3,20.25-17.6a53.53,53.53,0,0,1,23.38-5.3q21.21,0,31.46,11.57t10.24,34v72.44a10.49,10.49,0,0,1-10.49,10.49h0a10.49,10.49,0,0,1-10.49-10.49V388.53q0-17.35-6.27-24.47t-19.28-7.11a41.64,41.64,0,0,0-13.86,2.41,34.27,34.27,0,0,0-12.42,7.71,40.21,40.21,0,0,0-9.16,11.21q-3.13,5.9-3.13,15.31v63.28a10.49,10.49,0,0,1-10.49,10.49h0a10.49,10.49,0,0,1-10.49-10.49V353.09A10.37,10.37,0,0,1,730.45,342.72Z"/><path class="cls-2" d="M868.45,295.24h0a11.21,11.21,0,0,1,11.21,11.21v1.93a11.21,11.21,0,0,1-11.21,11.21h0a11.21,11.21,0,0,1-11.21-11.21v-1.93A11.21,11.21,0,0,1,868.45,295.24Zm0,47.49h0a10.49,10.49,0,0,1,10.49,10.49V456.87a10.49,10.49,0,0,1-10.49,10.49h0A10.49,10.49,0,0,1,858,456.87V353.21A10.49,10.49,0,0,1,868.45,342.72Z"/><path class="cls-2" d="M919,359.36H908a8.32,8.32,0,0,1-8.32-8.32h0a8.32,8.32,0,0,1,8.32-8.32h11v-23.5a10.49,10.49,0,0,1,10.49-10.49h0a10.49,10.49,0,0,1,10.49,10.49v23.5h24.71A8.32,8.32,0,0,1,973,351h0a8.32,8.32,0,0,1-8.32,8.32H939.92v73q0,9.16,4.1,14.7t12.53,5.55a70,70,0,0,0,8.78-1,8.54,8.54,0,0,1,9.69,6.59h0a8.58,8.58,0,0,1-6.54,10.26l-2.17.44A72.17,72.17,0,0,1,952.94,470q-10.61,0-17.12-3.13A25.43,25.43,0,0,1,925.46,458a34.65,34.65,0,0,1-5.18-13.74A105.37,105.37,0,0,1,919,426.86Z"/><path class="cls-3" d="M452.69,284.92,317.13,206.65a21.46,21.46,0,0,0-21.4,0L160.17,284.92a21.46,21.46,0,0,0-10.69,18.53V460a21.45,21.45,0,0,0,10.7,18.53l135.56,78.26a21.46,21.46,0,0,0,21.4,0l135.56-78.26A21.45,21.45,0,0,0,463.39,460V303.45A21.45,21.45,0,0,0,452.69,284.92Z"/><path class="cls-1" d="M384.85,441.92c0,9.29-8.21,17-19.84,17-8.33,0-17.94-3.36-23.81-10.65l-78.27-93.67v87.34a17,17,0,0,1-17,17h-1a17,17,0,0,1-17-17l0-120.42c0-9.29,8.21-17,19.84-17,8.33,0,17.94,3.36,23.81,10.65l78.27,93.67V321.51a17,17,0,0,1,17-17h1a17,17,0,0,1,17,17Z"/><path class="cls-2" d="M1002.69,296.63a16.53,16.53,0,0,1,1.13-6.37,12.53,12.53,0,0,1,3.18-4.58,13.38,13.38,0,0,1,4.94-2.79,21.06,21.06,0,0,1,6.47-.93,20.52,20.52,0,0,1,6.53.93,12.72,12.72,0,0,1,4.54,2.55,10.16,10.16,0,0,1,2.65,3.78,12.31,12.31,0,0,1,.86,4.61,11.26,11.26,0,0,1-1.39,5.77,10.9,10.9,0,0,1-4,3.91,12.29,12.29,0,0,1,6.7,4.78,14.25,14.25,0,0,1,2.12,8,16.54,16.54,0,0,1-1.26,6.83,12.18,12.18,0,0,1-3.32,4.48,13.07,13.07,0,0,1-4.61,2.45,18.13,18.13,0,0,1-5.21.76,15.74,15.74,0,0,1-5.87-1.09,11.07,11.07,0,0,1-4.68-3.55v16.58h-8.82Zm8.82,16.85a13.81,13.81,0,0,0,.83,5.24,8,8,0,0,0,2.12,3.08,6.74,6.74,0,0,0,2.85,1.46,12.94,12.94,0,0,0,3,.36,7.55,7.55,0,0,0,5.14-1.76q2-1.76,2-6.07,0-3.78-2.32-5.51t-7.3-1.72H1016v-7.1h1.59q3.38,0,4.91-1.66a7,7,0,0,0,1.53-4.91,6,6,0,0,0-1.43-4.28,5.66,5.66,0,0,0-4.28-1.49q-3.65,0-5.24,2.26t-1.59,6.57Z"/><path class="cls-2" d="M1073.66,319q-.93,5.84-4.68,8.85t-10.91,3q-8.62,0-13-4.78t-4.34-13.53a22.41,22.41,0,0,1,1.26-7.79,16.53,16.53,0,0,1,3.55-5.8,14.9,14.9,0,0,1,5.47-3.61,19.41,19.41,0,0,1,7-1.23q8,0,12,4.58t4,12.34v3.71h-24a10.35,10.35,0,0,0,2.12,6.53q2,2.36,6,2.35,5.5,0,6.5-4.64Zm-8.56-10.35a8.14,8.14,0,0,0-1.76-5.57q-1.76-2-5.47-2a8.2,8.2,0,0,0-3.25.6,6.89,6.89,0,0,0-2.35,1.63,7.39,7.39,0,0,0-1.49,2.39,9.07,9.07,0,0,0-.6,3Z"/><path class="cls-2" d="M1082.81,302.47h-5.44v-7.23h5.44V286h9.29v9.22h8v7.23h-8v16q0,2.72,1.13,3.68a4.34,4.34,0,0,0,2.92,1,18.35,18.35,0,0,0,1.89-.1,11,11,0,0,0,1.89-.36l1.33,6.83a22.13,22.13,0,0,1-3.75.83,27.72,27.72,0,0,1-3.48.23q-5.7,0-8.46-2.72t-2.75-9.15Z"/><path class="cls-2" d="M1127.05,325.48a18.2,18.2,0,0,1-4.61,3.78,13.21,13.21,0,0,1-6.6,1.46,16,16,0,0,1-4.41-.6,10.16,10.16,0,0,1-3.65-1.86,9,9,0,0,1-2.49-3.22,10.81,10.81,0,0,1-.93-4.68,9.9,9.9,0,0,1,1.59-5.84,10.82,10.82,0,0,1,4.18-3.52,21,21,0,0,1,5.8-1.79,53.31,53.31,0,0,1,6.53-.66l4.44-.2v-1.72q0-3.18-1.76-4.38a7.2,7.2,0,0,0-4.15-1.19q-5.51,0-6.3,4.18l-8.49-.8q.93-5.44,4.78-7.86t10.35-2.42a20.88,20.88,0,0,1,6.77,1,10.93,10.93,0,0,1,4.48,2.75,10.67,10.67,0,0,1,2.45,4.34,20,20,0,0,1,.76,5.74v21.89h-8.75Zm-.2-11.08-4.11.2a23.78,23.78,0,0,0-4.71.6,8.29,8.29,0,0,0-2.75,1.16A3.45,3.45,0,0,0,1114,318a6.06,6.06,0,0,0-.33,2.06,3.35,3.35,0,0,0,1.19,2.72,5,5,0,0,0,3.32,1,9.61,9.61,0,0,0,5.84-1.66,7.3,7.3,0,0,0,2.06-2.35,7.2,7.2,0,0,0,.8-3.55Z"/></g></svg>
